HIERARCHY
ROOT Root
{
  OFFSET 0.0 0.0 0.0
  CHANNELS 6 Xposition Yposition Zposition Zrotation Yrotation Xrotation
  JOINT Hips
  {
    OFFSET 0.0 100.0 0.0
    CHANNELS 6 Xposition Yposition Zposition Zrotation Yrotation Xrotation
    JOINT Spine1
    {
      OFFSET -0.013727 5.003763 -0.053727
      CHANNELS 3 Zrotation Yrotation Xrotation
      JOINT Spine2
      {
        OFFSET -0.0 7.125301 -0.029825
        CHANNELS 3 Zrotation Yrotation Xrotation
        JOINT Chest
        {
          OFFSET -1e-06 7.550063 -0.815971
          CHANNELS 3 Zrotation Yrotation Xrotation
          JOINT Neck1
          {
            OFFSET -0.181677 26.311295 -0.553348
            CHANNELS 3 Zrotation Yrotation Xrotation
            JOINT Neck2
            {
              OFFSET -3e-06 7.709397 2.302585
              CHANNELS 3 Zrotation Yrotation Xrotation
              JOINT Head
              {
                OFFSET -5e-06 6.128916 1.953709
                CHANNELS 3 Zrotation Yrotation Xrotation
                JOINT HeadEnd
                {
                  OFFSET 0.003598 16.065403 -1.835379
                  CHANNELS 3 Zrotation Yrotation Xrotation
                }
                JOINT Jaw
                {
                  OFFSET 0.002637 0.475592 3.094941
                  CHANNELS 3 Zrotation Yrotation Xrotation
                }
                JOINT LeftEye
                {
                  OFFSET 3.206381 5.380205 7.586883
                  CHANNELS 3 Zrotation Yrotation Xrotation
                }
                JOINT RightEye
                {
                  OFFSET -3.22244 5.361869 7.558234
                  CHANNELS 3 Zrotation Yrotation Xrotation
                }
              }
            }
          }
          JOINT LeftShoulder
          {
            OFFSET 1.621652 23.237164 5.113413
            CHANNELS 3 Zrotation Yrotation Xrotation
            JOINT LeftArm
            {
              OFFSET 14.919846 2e-06 -5.502326
              CHANNELS 3 Zrotation Yrotation Xrotation
              JOINT LeftForeArm
              {
                OFFSET 28.739307 0.0 -0.002588
                CHANNELS 3 Zrotation Yrotation Xrotation
                JOINT LeftHand
                {
                  OFFSET 27.093981 -1e-06 0.002609
                  CHANNELS 3 Zrotation Yrotation Xrotation
                  JOINT LeftHandThumb1
                  {
                    OFFSET 2.276482 -1.392045 3.191413
                    CHANNELS 3 Zrotation Yrotation Xrotation
                    JOINT LeftHandThumb2
                    {
                      OFFSET 4.012836 -1.828127 1.641654
                      CHANNELS 3 Zrotation Yrotation Xrotation
                      JOINT LeftHandThumb3
                      {
                        OFFSET 2.798515 0.0 -3e-06
                        CHANNELS 3 Zrotation Yrotation Xrotation
                        JOINT LeftHandThumbEnd
                        {
                          OFFSET 3.180793 -4e-06 4e-06
                          CHANNELS 3 Zrotation Yrotation Xrotation
                        }
                      }
                    }
                  }
                  JOINT LeftHandIndex1
                  {
                    OFFSET 3.247555 -0.531998 2.296169
                    CHANNELS 3 Zrotation Yrotation Xrotation
                    JOINT LeftHandIndex2
                    {
                      OFFSET 6.364578 0.01206 0.1786
                      CHANNELS 3 Zrotation Yrotation Xrotation
                      JOINT LeftHandIndex3
                      {
                        OFFSET 3.662364 0.0 0.0
                        CHANNELS 3 Zrotation Yrotation Xrotation
                        JOINT LeftHandIndex4
                        {
                          OFFSET 2.329242 4e-06 4e-06
                          CHANNELS 3 Zrotation Yrotation Xrotation
                          JOINT LeftHandIndexEnd
                          {
                            OFFSET 2.759615 -0.180537 -0.113024
                            CHANNELS 3 Zrotation Yrotation Xrotation
                          }
                        }
                      }
                    }
                  }
                  JOINT LeftHandMiddle1
                  {
                    OFFSET 3.163495 0.240981 1.000332
                    CHANNELS 3 Zrotation Yrotation Xrotation
                    JOINT LeftHandMiddle2
                    {
                      OFFSET 6.19078 -0.259278 -1.002548
                      CHANNELS 3 Zrotation Yrotation Xrotation
                      JOINT LeftHandMiddle3
                      {
                        OFFSET 4.35652 -4e-06 -1e-06
                        CHANNELS 3 Zrotation Yrotation Xrotation
                        JOINT LeftHandMiddle4
                        {
                          OFFSET 2.996877 -8e-06 0.0
                          CHANNELS 3 Zrotation Yrotation Xrotation
                          JOINT LeftHandMiddleEnd
                          {
                            OFFSET 2.304287 -0.294569 -0.031741
                            CHANNELS 3 Zrotation Yrotation Xrotation
                          }
                        }
                      }
                    }
                  }
                  JOINT LeftHandRing1
                  {
                    OFFSET 2.882643 -0.053652 -0.322543
                    CHANNELS 3 Zrotation Yrotation Xrotation
                    JOINT LeftHandRing2
                    {
                      OFFSET 5.854541 -0.486202 -1.373841
                      CHANNELS 3 Zrotation Yrotation Xrotation
                      JOINT LeftHandRing3
                      {
                        OFFSET 4.350578 0.0 3e-06
                        CHANNELS 3 Zrotation Yrotation Xrotation
                        JOINT LeftHandRing4
                        {
                          OFFSET 2.651321 7e-06 2e-06
                          CHANNELS 3 Zrotation Yrotation Xrotation
                          JOINT LeftHandRingEnd
                          {
                            OFFSET 1.936105 0.077687 -7.1e-05
                            CHANNELS 3 Zrotation Yrotation Xrotation
                          }
                        }
                      }
                    }
                  }
                  JOINT LeftHandPinky1
                  {
                    OFFSET 2.8655 -0.310005 -1.600378
                    CHANNELS 3 Zrotation Yrotation Xrotation
                    JOINT LeftHandPinky2
                    {
                      OFFSET 5.087849 -1.331141 -1.77123
                      CHANNELS 3 Zrotation Yrotation Xrotation
                      JOINT LeftHandPinky3
                      {
                        OFFSET 3.070974 4e-06 0.0
                        CHANNELS 3 Zrotation Yrotation Xrotation
                        JOINT LeftHandPinky4
                        {
                          OFFSET 1.549672 0.0 1e-06
                          CHANNELS 3 Zrotation Yrotation Xrotation
                          JOINT LeftHandPinkyEnd
                          {
                            OFFSET 1.944893 -0.157802 0.057219
                            CHANNELS 3 Zrotation Yrotation Xrotation
                          }
                        }
                      }
                    }
                  }
                }
              }
            }
          }
          JOINT RightShoulder
          {
            OFFSET -1.380118 23.180309 5.214158
            CHANNELS 3 Zrotation Yrotation Xrotation
            JOINT RightArm
            {
              OFFSET -15.037196 1.2e-05 -5.545604
              CHANNELS 3 Zrotation Yrotation Xrotation
              JOINT RightForeArm
              {
                OFFSET -28.736639 2e-06 -0.002597
                CHANNELS 3 Zrotation Yrotation Xrotation
                JOINT RightHand
                {
                  OFFSET -27.133619 -0.0 0.002613
                  CHANNELS 3 Zrotation Yrotation Xrotation
                  JOINT RightHandThumb1
                  {
                    OFFSET -2.274032 -1.383988 3.163127
                    CHANNELS 3 Zrotation Yrotation Xrotation
                    JOINT RightHandThumb2
                    {
                      OFFSET -4.011429 -1.827466 1.640914
                      CHANNELS 3 Zrotation Yrotation Xrotation
                      JOINT RightHandThumb3
                      {
                        OFFSET -2.794935 -4e-06 -3e-06
                        CHANNELS 3 Zrotation Yrotation Xrotation
                        JOINT RightHandThumbEnd
                        {
                          OFFSET -3.183852 4e-06 1e-06
                          CHANNELS 3 Zrotation Yrotation Xrotation
                        }
                      }
                    }
                  }
                  JOINT RightHandIndex1
                  {
                    OFFSET -3.253266 -0.520057 2.282866
                    CHANNELS 3 Zrotation Yrotation Xrotation
                    JOINT RightHandIndex2
                    {
                      OFFSET -6.341917 0.012471 0.178266
                      CHANNELS 3 Zrotation Yrotation Xrotation
                      JOINT RightHandIndex3
                      {
                        OFFSET -3.654871 -8e-06 -0.0
                        CHANNELS 3 Zrotation Yrotation Xrotation
                        JOINT RightHandIndex4
                        {
                          OFFSET -2.327586 0.0 1e-06
                          CHANNELS 3 Zrotation Yrotation Xrotation
                          JOINT RightHandIndexEnd
                          {
                            OFFSET -2.76179 -0.180656 -0.113078
                            CHANNELS 3 Zrotation Yrotation Xrotation
                          }
                        }
                      }
                    }
                  }
                  JOINT RightHandMiddle1
                  {
                    OFFSET -3.168106 0.246593 1.00103
                    CHANNELS 3 Zrotation Yrotation Xrotation
                    JOINT RightHandMiddle2
                    {
                      OFFSET -6.180828 -0.258836 -1.000895
                      CHANNELS 3 Zrotation Yrotation Xrotation
                      JOINT RightHandMiddle3
                      {
                        OFFSET -4.348901 0.0 -0.0
                        CHANNELS 3 Zrotation Yrotation Xrotation
                        JOINT RightHandMiddle4
                        {
                          OFFSET -3.00024 -4e-06 -2e-06
                          CHANNELS 3 Zrotation Yrotation Xrotation
                          JOINT RightHandMiddleEnd
                          {
                            OFFSET -2.30252 -0.29437 -0.031706
                            CHANNELS 3 Zrotation Yrotation Xrotation
                          }
                        }
                      }
                    }
                  }
                  JOINT RightHandRing1
                  {
                    OFFSET -2.88569 -0.067952 -0.308858
                    CHANNELS 3 Zrotation Yrotation Xrotation
                    JOINT RightHandRing2
                    {
                      OFFSET -5.854198 -0.48613 -1.373731
                      CHANNELS 3 Zrotation Yrotation Xrotation
                      JOINT RightHandRing3
                      {
                        OFFSET -4.33881 -4e-06 -0.0
                        CHANNELS 3 Zrotation Yrotation Xrotation
                        JOINT RightHandRing4
                        {
                          OFFSET -2.654903 -4e-06 4e-06
                          CHANNELS 3 Zrotation Yrotation Xrotation
                          JOINT RightHandRingEnd
                          {
                            OFFSET -1.933568 0.077527 -5.2e-05
                            CHANNELS 3 Zrotation Yrotation Xrotation
                          }
                        }
                      }
                    }
                  }
                  JOINT RightHandPinky1
                  {
                    OFFSET -2.866425 -0.342796 -1.584145
                    CHANNELS 3 Zrotation Yrotation Xrotation
                    JOINT RightHandPinky2
                    {
                      OFFSET -5.091371 -1.332055 -1.772385
                      CHANNELS 3 Zrotation Yrotation Xrotation
                      JOINT RightHandPinky3
                      {
                        OFFSET -3.062664 -4e-06 1e-06
                        CHANNELS 3 Zrotation Yrotation Xrotation
                        JOINT RightHandPinky4
                        {
                          OFFSET -1.546529 4e-06 -2e-06
                          CHANNELS 3 Zrotation Yrotation Xrotation
                          JOINT RightHandPinkyEnd
                          {
                            OFFSET -1.945119 -0.157718 0.057211
                            CHANNELS 3 Zrotation Yrotation Xrotation
                          }
                        }
                      }
                    }
                  }
                }
              }
            }
          }
        }
      }
    }
    JOINT LeftLeg
    {
      OFFSET 10.043214 -8.434526 2.595655
      CHANNELS 3 Zrotation Yrotation Xrotation
      JOINT LeftShin
      {
        OFFSET -1e-06 -43.221752 -0.802913
        CHANNELS 3 Zrotation Yrotation Xrotation
        JOINT LeftFoot
        {
          OFFSET 1e-06 -42.155094 -3.481523
          CHANNELS 3 Zrotation Yrotation Xrotation
          JOINT LeftToeBase
          {
            OFFSET 0.0 -5.059472 13.231529
            CHANNELS 3 Zrotation Yrotation Xrotation
            JOINT LeftToeEnd
            {
              OFFSET -0.009607 -1.647619 6.513017
              CHANNELS 3 Zrotation Yrotation Xrotation
            }
          }
        }
      }
    }
    JOINT RightLeg
    {
      OFFSET -10.047278 -8.29526 2.620317
      CHANNELS 3 Zrotation Yrotation Xrotation
      JOINT RightShin
      {
        OFFSET 1e-06 -43.362206 -0.805556
        CHANNELS 3 Zrotation Yrotation Xrotation
        JOINT RightFoot
        {
          OFFSET 2e-06 -42.117393 -3.478398
          CHANNELS 3 Zrotation Yrotation Xrotation
          JOINT RightToeBase
          {
            OFFSET -0.0 -5.079609 13.284196
            CHANNELS 3 Zrotation Yrotation Xrotation
            JOINT RightToeEnd
            {
              OFFSET 0.009532 -1.634378 6.460591
              CHANNELS 3 Zrotation Yrotation Xrotation
            }
          }
        }
      }
    }
  }
}
MOTION
Frames: 4
Frame Time: 0.03333333333333333
0.0 0.0 0.0 0.0 -0.0 0.0 -268.313232 83.30423 -1136.373047 17.493288 -8.006884 -11.596725 -4.635655 -10.402196 11.039377 19.7805 -55.165173 -13.841638 10.55972 -76.863068 -4.768553 10.357616 -8.322302 9.612276 0.11447 -13.576913 -7.605685 12.003922 -6.220056 -79.837143 7.7e-05 -2.2e-05 7e-06 -0.193668 -0.120675 0.090581 -0.153137 -3.776558 -10.317774 -0.252906 3.529014 -10.741201 -2.464699 -22.360876 24.460524 -55.10598 -22.161285 -45.667217 -0.402769 -10.206129 -1.188405 46.978756 -8.605292 2.714066 -5.882108 9.861288 0.702589 -10.93688 -0.360577 7.156209 1e-06 8.77483 -0.0 -14.213497 18.802757 8.500829 -1.844034 2.498506 -2.507279 -10.163608 4.678946 4.621109 -20.97604 -6e-06 2e-06 -21.226301 2.451694 -3.594003 -0.0 -6e-06 -1e-06 -1.362685 2.240798 -0.746324 -21.33493 0.584907 3.008323 -13.821223 -4e-06 0.0 -23.887188 -0.249082 -0.839482 -61.617847 3.76307 2.633284 -0.294025 1.679688 0.833256 -14.21822 0.093215 1.300579 -34.212074 -0.287569 0.967169 -20.033228 0.964534 1.212845 1e-06 0.0 0.0 -3.440391 0.788233 0.501656 -15.928201 -3.167313 2.999708 -6.338831 -2e-06 1e-06 -18.123463 3.648181 -4.905674 -4e-06 0.0 -2e-06 8.155569 -13.947481 27.466953 43.856361 29.227337 -1.403454 -10.468067 62.922081 -7.795388 -31.80657 18.750221 -101.07428 2.243541 -5.255041 -3.18016 14.282903 -0.826594 6.952514 -4e-06 -12.690617 -1e-06 16.946501 -14.424885 3.026187 1.665666 -1.955923 -2.878301 4.727803 -4.17059 4.993929 11.020533 4e-06 1e-06 12.109059 -3.735718 -2.866784 0.0 0.0 0.0 1.291986 -1.928551 -1.498088 14.80014 0.56747 3.865617 14.24258 -1.341737 -6.66066 19.631981 0.143926 -0.648239 50.929474 -0.961271 -5.384499 0.353029 -1.511152 -0.031939 20.222805 3.684315 2.316638 18.787289 4e-06 6e-06 10.751637 -0.47987 1.397911 -1e-06 1e-06 -1e-06 3.273809 0.305948 -0.580112 21.486834 11.830386 2.266146 8.162936 2e-06 4e-06 18.399097 -3.798988 -4.940574 3e-06 -1e-06 1e-06 151.209518 -33.615063 172.334152 -0.246478 -2.245331 44.384838 -5.961734 -6.704136 -38.276142 1.512321 -2.332754 4.730439 -0.0 -1e-06 2e-06 174.268188 -16.835827 137.41806 -0.257062 -0.598988 73.059105 0.531208 -10.989369 -37.030514 -1.320666 0.015315 -2.085214 0.0 0.0 -1e-06
0.0 0.0 0.0 0.0 -0.0 0.0 -267.089142 83.222389 -1132.573364 18.594004 -9.92376 -11.300607 -4.209877 -12.812227 11.368341 32.456699 -62.104267 -28.522043 -2.60201 -64.873672 5.231454 8.54223 -8.011122 9.77398 0.537835 -12.515928 -7.424113 11.86512 -6.735644 -78.665138 7.7e-05 -2.2e-05 5e-06 -0.208545 -0.1353 0.078111 -0.171031 -3.837156 -10.585864 -0.261636 3.562231 -10.901657 -3.013894 -22.053959 25.35779 -53.147617 -22.10714 -47.979191 -1.246088 -14.377733 -1.367161 48.32373 -8.805162 4.320148 -5.882112 9.861295 0.702591 -10.936883 -0.360574 7.156213 0.0 8.774835 -1e-06 -14.648335 18.825811 8.268866 -1.844035 2.498507 -2.507281 -10.16361 4.678948 4.621113 -20.976048 -3e-06 1e-06 -21.226313 2.451698 -3.594004 0.0 -6e-06 -0.0 -1.362682 2.240799 -0.746325 -21.334938 0.58491 3.008324 -13.821233 -2e-06 1e-06 -23.887199 -0.249079 -0.839485 -62.191925 3.552329 2.180202 -0.294026 1.67969 0.833257 -14.218224 0.093216 1.300581 -34.212082 -0.287563 0.967169 -20.033234 0.964538 1.212842 -0.0 -0.0 2e-06 -3.440392 0.788235 0.501656 -15.928203 -3.167311 2.99971 -6.338833 -1e-06 0.0 -18.123466 3.648185 -4.905676 -3e-06 -0.0 -1e-06 8.543614 -13.504901 28.519978 42.208649 28.965982 -2.798625 -12.29456 63.455826 -9.707134 -33.078217 18.340841 -104.520248 2.243543 -5.255041 -3.180162 14.282905 -0.826592 6.952511 -5e-06 -12.690615 1e-06 16.40472 -14.634104 3.555376 1.665667 -1.955923 -2.878303 4.727802 -4.17059 4.993929 11.020535 5e-06 0.0 12.10906 -3.735717 -2.866783 -0.0 -1e-06 2e-06 1.291986 -1.928551 -1.498089 14.800144 0.567471 3.865613 14.242584 -1.341734 -6.660662 19.631985 0.143929 -0.648242 50.974163 -0.73587 -5.074796 0.353029 -1.511152 -0.031939 20.222813 3.684317 2.316636 18.787291 7e-06 3e-06 10.751637 -0.479867 1.39791 0.0 -0.0 -1e-06 3.27381 0.305948 -0.580109 21.486834 11.830389 2.266137 8.162935 3e-06 -0.0 18.399099 -3.798986 -4.940576 3e-06 -1e-06 -0.0 149.717026 -35.955463 169.022583 -0.238167 -2.155296 48.395294 -5.963423 -6.709103 -37.147594 1.492612 -2.343427 4.815824 0.0 -0.0 2e-06 172.913925 -19.226364 138.069885 -0.204583 -0.554051 73.698914 -0.179237 -11.157279 -38.164101 -1.359922 -0.135855 -1.803723 0.0 -0.0 -1e-06
0.0 0.0 0.0 0.0 -0.0 0.0 -264.472168 83.278954 -1131.996094 19.201637 -11.060232 -11.122087 -3.351894 -14.867064 11.681577 41.139259 -64.569748 -39.312813 -6.260704 -58.21405 7.516224 6.973361 -8.112671 10.100245 0.63912 -11.482185 -7.130111 11.869733 -7.188521 -78.245354 7.7e-05 -2.3e-05 5e-06 -0.178003 -0.109122 0.075808 -0.131811 -3.829002 -10.692368 -0.238719 3.607703 -10.988193 -3.917361 -21.752764 25.718821 -50.890427 -21.172216 -49.628979 -2.238355 -17.750244 -1.288173 49.026699 -9.694024 4.96427 -5.882108 9.861288 0.70259 -10.936872 -0.360577 7.156209 3e-06 8.774827 -1e-06 -15.012821 19.020708 8.005749 -1.844033 2.498505 -2.507279 -10.163599 4.678946 4.62111 -20.97603 -5e-06 0.0 -21.22629 2.451694 -3.594003 0.0 -6e-06 -0.0 -1.362681 2.240798 -0.746323 -21.334921 0.584908 3.008324 -13.821215 -4e-06 2e-06 -23.887175 -0.249082 -0.839482 -62.993813 3.46068 1.905723 -0.294024 1.679689 0.833256 -14.218212 0.093214 1.30058 -34.212059 -0.287567 0.967171 -20.033218 0.964535 1.212845 0.0 -0.0 0.0 -3.440389 0.788234 0.501656 -15.928187 -3.167312 2.999708 -6.33883 -1e-06 1e-06 -18.123447 3.648181 -4.905671 -5e-06 1e-06 -3e-06 9.167423 -13.521037 28.800442 40.392567 28.269344 -4.196751 -12.828358 64.53437 -10.754807 -33.49873 18.259548 -107.570854 2.243541 -5.255037 -3.180159 14.282892 -0.82659 6.952501 -5e-06 -12.690606 -1e-06 16.487789 -14.763495 3.668232 1.665666 -1.955921 -2.8783 4.727798 -4.170586 4.99392 11.020528 4e-06 1e-06 12.109052 -3.735713 -2.866786 -0.0 -0.0 1e-06 1.291985 -1.928549 -1.498088 14.800131 0.567472 3.865608 14.242571 -1.341734 -6.660657 19.631971 0.143929 -0.648241 51.557453 -0.609342 -5.042059 0.353029 -1.511151 -0.031939 20.222794 3.684315 2.31663 18.78727 1e-05 -0.0 10.751628 -0.479867 1.397908 -1e-06 -0.0 -0.0 3.273807 0.305948 -0.580111 21.486818 11.83038 2.266134 8.162927 4e-06 -0.0 18.39908 -3.798982 -4.940573 4e-06 -1e-06 -1e-06 146.723618 -36.926479 170.36644 -0.336288 -2.214488 47.620663 -7.086094 -6.695227 -35.350254 1.480406 -2.33574 4.812985 0.0 1e-06 2e-06 172.185242 -21.135454 138.497879 -0.142439 -0.468811 73.566177 -0.289607 -12.08399 -39.059849 -1.380632 -0.118291 -1.658527 0.0 0.0 -1e-06
0.0 0.0 0.0 0.0 -0.0 0.0 -262.345947 83.265266 -1127.963745 19.31098 -11.069717 -11.028118 -2.6204 -15.684482 12.106497 45.037209 -64.377411 -44.072575 -7.283894 -57.242077 7.425641 5.927089 -8.526973 10.677284 0.834631 -10.503742 -6.970071 11.625503 -7.050084 -78.041519 7.7e-05 -2.3e-05 7e-06 -0.18635 -0.113054 0.075977 -0.131078 -3.82709 -10.707921 -0.255628 3.598138 -10.996523 -4.63457 -21.709251 26.068539 -48.824913 -20.064856 -51.228848 -3.081285 -20.070602 -1.062682 49.202187 -10.635719 5.736852 -5.882105 9.861284 0.702592 -10.936872 -0.360574 7.156207 1e-06 8.774824 -0.0 -15.259389 19.159218 7.8301 -1.844031 2.498504 -2.507277 -10.163599 4.678945 4.621109 -20.976019 -4e-06 4e-06 -21.22628 2.451696 -3.593999 -1e-06 -6e-06 0.0 -1.362681 2.240798 -0.746323 -21.334911 0.584909 3.008326 -13.82121 -2e-06 2e-06 -23.887167 -0.249077 -0.839481 -63.5182 3.427932 1.886325 -0.294025 1.679688 0.833255 -14.218207 0.093215 1.300581 -34.212048 -0.287562 0.967174 -20.033209 0.964538 1.212845 -0.0 0.0 -0.0 -3.440386 0.788233 0.501655 -15.928185 -3.16731 2.999708 -6.338827 -1e-06 3e-06 -18.123446 3.648183 -4.905668 -5e-06 0.0 -2e-06 9.711495 -13.772173 28.99876 38.935181 27.814356 -4.781756 -13.298481 65.38269 -11.604493 -33.953217 18.46295 -109.7733 2.243541 -5.255039 -3.180161 14.282896 -0.826594 6.952509 -3e-06 -12.690611 0.0 16.725601 -14.89151 3.608783 1.665666 -1.955922 -2.878299 4.7278 -4.170588 4.993925 11.020529 3e-06 0.0 12.109055 -3.735718 -2.866784 -1e-06 1e-06 -0.0 1.291986 -1.92855 -1.49809 14.800134 0.567469 3.865611 14.242576 -1.341735 -6.660657 19.631971 0.143926 -0.648241 52.435646 -0.627121 -5.200935 0.353029 -1.511151 -0.031938 20.222801 3.684314 2.316633 18.787283 5e-06 1e-06 10.751632 -0.479869 1.397908 1e-06 1e-06 -1e-06 3.273808 0.305948 -0.580111 21.486822 11.830384 2.266138 8.16293 3e-06 1e-06 18.399088 -3.798986 -4.940574 3e-06 -0.0 -1e-06 146.224609 -36.76453 166.138733 -0.417782 -2.296693 50.109013 -7.200103 -5.946846 -33.30072 1.480423 -2.321574 4.868256 0.0 -1e-06 2e-06 171.766266 -21.769329 138.530426 -0.146829 -0.41624 73.333626 -0.671674 -13.02214 -39.621769 -1.386204 -0.131235 -1.462727 1e-06 0.0 -1e-06
